<svg viewBox="0 0 41 32" fill="none" xmlns="http://www.w3.org/2000/svg">
  <g clip-path="url(#clip0)">
    <path d="M24.3967 21.0862V21.0774C22.0539 21.0304 20.169 19.155 20.169 16.8445C20.169 19.1501 18.2909 21.0226 15.955 21.0764V21.0862C18.2909 21.14 20.169 23.0124 20.169 25.3181C20.1681 23.0085 22.0539 21.1331 24.3967 21.0862Z" fill="currentColor"/>
    <path d="M23.5287 0H17.0021C16.1605 0 15.39 0.4713 15.0042 1.22225L0.14219 30.1505C-0.290316 30.9933 0.318504 31.9975 1.26339 31.9975H8.76796C9.61739 31.9975 10.3938 31.5174 10.7756 30.7567L14.7675 22.8042C15.3101 21.7228 15.3013 20.4458 14.7432 19.3722L11.8705 13.8456C11.0893 12.3428 12.1764 10.5436 13.8655 10.5456L26.68 10.5593C28.3691 10.5612 29.4523 12.3623 28.6681 13.8632L25.435 20.0547C25.098 20.699 25.0922 21.4676 25.4185 22.1178L29.7552 30.7577C30.1371 31.5184 30.9135 31.9985 31.7629 31.9985H39.2674C40.2123 31.9985 40.8212 30.9943 40.3887 30.1514L25.5266 1.22225C25.1409 0.4713 24.3694 0 23.5287 0Z" fill="currentColor"/>
  </g>
  <defs>
    <clipPath id="clip0">
      <rect width="40.5309" height="31.9965" fill="currentColor"/>
    </clipPath>
  </defs>
</svg>
